<mxfile host="app.diagrams.net" modified="2023-11-26T12:39:11.769Z" agent="Mozilla/5.0 (Windows NT 10.0; Win64; x64) AppleWebKit/537.36 (KHTML, like Gecko) Chrome/119.0.0.0 Safari/537.36 Edg/119.0.0.0" version="22.1.4" etag="494Hl01LR0e-PtgH9lHJ" type="github">
  <diagram name="Sayfa -1" id="ztqOOjFa94xfOzm2sStt">
    <mxGraphModel>
      <root>
        <mxCell id="0" />
        <mxCell id="1" parent="0" />
      </root>
    </mxGraphModel>
  </diagram>
</mxfile>
